<?xml version="1.0"?><svg width="640" height="480" xmlns="http://www.w3.org/2000/svg">
 <title>green flower</title>
 <g>
  <title>Layer 1</title>
  <g id="layer1">
   <path fill="#00b050" fill-rule="evenodd" stroke-width="1px" id="path2395" d="m205.835632,154.9422c-9.442841,-62.952148 -61.537933,-87.745087 -82.467316,-96.94632c-18.602631,-8.178284 -22.662781,-23.292297 -22.662781,-23.292297c0,0 -5.036194,16.997101 -5.036194,25.180878c0,8.183777 -1.88855,46.584595 13.219971,78.690186c15.108521,32.105591 61.063568,43.437012 74.283539,59.175049c13.21994,15.738037 8.183777,43.436951 8.183777,43.436951c0,0 -0.629517,-22.033264 -15.738037,-35.253174c-15.108521,-13.219971 -52.250275,-13.219971 -73.024506,-50.991272c-20.7742,-37.771301 -22.539398,-108.232361 -4.406647,-134.717621c8.890778,-12.986115 0.692169,6.858368 14.479004,19.515198c12.792786,11.744232 51.520996,23.398315 74.283539,46.584595c25.956726,26.43988 19.515167,69.876862 18.885651,68.617828z"/>
   <path fill="#00b050" fill-rule="evenodd" stroke-width="1px" id="path3199" d="m176.923248,180.658936c5.434631,-24.979187 5.269867,-36.326843 -9.835968,-52.067444c-15.410889,-16.058533 -30.433777,-10.6987 -47.539734,-39.122345c8.897888,34.53595 30.971832,31.920898 43.275726,50.918427c12.02298,18.563782 12.867767,39.59082 14.099976,40.271362z"/>
   <path fill="#00b050" fill-rule="evenodd" stroke-width="1px" id="path3201" d="m225.260834,152.336426c24.349915,-7.783081 34.09491,-13.599548 40.173767,-34.55191c6.20166,-21.375488 -5.951538,-31.70575 10.111084,-60.731781c-25.460052,24.973755 -12.158386,42.782837 -22.458801,62.937103c-10.065216,19.694122 -27.852753,30.939178 -27.82605,32.346588z"/>
   <path fill="#00b050" fill-rule="evenodd" stroke-width="1px" id="path3203" d="m275.263184,178.507019c18.915283,17.196106 28.825043,22.727295 50.009735,17.515564c21.612518,-5.317017 24.482178,-21.00708 57.650818,-21.609497c-34.357971,-9.562134 -43.130219,10.861938 -65.734558,12.018677c-22.088196,1.13031 -40.72049,-8.65155 -41.925995,-7.924744z"/>
   <path fill="#00b050" fill-rule="evenodd" stroke-width="1px" id="path3205" d="m278.747345,238.950684c-5.434601,24.979187 -5.269867,36.326843 9.835968,52.067505c15.410889,16.058533 30.433777,10.698669 47.539734,39.122314c-8.897888,-34.53595 -30.971832,-31.920898 -43.275726,-50.918457c-12.02298,-18.563782 -12.867767,-39.590759 -14.099976,-40.271362z"/>
   <path fill="#00b050" fill-rule="evenodd" stroke-width="1px" id="path3207" d="m234.18689,267.90271c-24.349915,7.783081 -34.09491,13.599548 -40.173767,34.551941c-6.20166,21.375488 5.951569,31.70575 -10.111084,60.73175c25.460052,-24.973755 12.158386,-42.782837 22.458801,-62.937073c10.065216,-19.694092 27.852753,-30.939209 27.82605,-32.346619z"/>
   <path fill="#00b050" fill-rule="evenodd" stroke-width="1px" id="path3209" d="m188.591187,241.732178c-18.915283,-17.196106 -28.825012,-22.727295 -50.009705,-17.515564c-21.612549,5.316956 -24.482208,21.00708 -57.650818,21.609436c34.357941,9.562195 43.130219,-10.861938 65.734558,-12.018677c22.088196,-1.13031 40.72049,8.651611 41.925964,7.924805z"/>
   <path fill="#00b050" fill-rule="evenodd" stroke-width="1px" id="path2391" d="m264.410614,160.702148c49.796783,-39.653778 45.22052,-97.165955 42.724335,-119.891937c-2.218689,-20.199463 8.840332,-31.272675 8.840332,-31.272675c0,0 -17.238007,4.137085 -24.325348,8.228973c-7.087372,4.091888 -41.28772,21.656738 -61.53772,50.793915c-20.250031,29.137146 -7.085754,74.601135 -14.105316,93.918945c-7.019562,19.31781 -33.525665,28.805847 -33.525665,28.805847c0,0 18.766632,-11.561768 22.661163,-31.256165c3.894562,-19.694336 -14.676331,-51.860016 7.647461,-88.736664c22.323822,-36.876648 82.46228,-73.635895 114.465546,-71.175079c15.691711,1.206573 -5.593414,4.028625 -9.661133,22.296753c-3.774414,16.950989 5.496979,56.317688 -3.20166,87.623749c-9.919281,35.699127 -50.757568,51.839081 -49.981995,50.664337z"/>
   <path fill="#00b050" fill-rule="evenodd" stroke-width="1px" id="path2393" d="m289.532654,212.423828c59.239563,23.29834 106.758453,-9.420898 125.19162,-22.945679c16.383911,-12.021179 31.503113,-7.980347 31.503113,-7.980347c0,0 -12.201782,-12.860046 -19.289185,-16.951904c-7.087341,-4.091919 -39.39917,-24.927856 -74.757629,-27.896271c-35.358551,-2.968445 -68.149353,31.164093 -88.388885,34.743927c-20.239532,3.579773 -41.709442,-14.631165 -41.709442,-14.631165c0,0 19.396149,10.471497 38.3992,3.99707c19.003082,-6.474365 37.573944,-38.640106 80.671967,-37.745453c43.098022,0.894653 105.001709,34.596466 118.872192,63.542572c6.800964,14.192688 -6.285583,-2.829773 -24.140137,2.781555c-16.5672,5.206787 -46.024048,32.919373 -77.485229,41.039124c-35.875977,9.259216 -70.272705,-18.037781 -68.867584,-17.95343z"/>
   <path fill="#00b050" fill-rule="evenodd" stroke-width="1px" id="path2396" d="m253.811218,258.518372c9.44281,62.952148 61.537933,87.745117 82.467316,96.94635c18.6026,8.178284 22.662781,23.292236 22.662781,23.292236c0,0 5.036133,-16.99707 5.036133,-25.180847c0.000061,-8.183777 1.888611,-46.584595 -13.21991,-78.690186c-15.108521,-32.105591 -61.063599,-43.436951 -74.283539,-59.175049c-13.219971,-15.737976 -8.183807,-43.436951 -8.183807,-43.436951c0,0 0.629517,22.033264 15.738037,35.253235c15.108521,13.21991 52.250305,13.21991 73.024536,50.991211c20.77417,37.771301 22.539368,108.232361 4.406616,134.71759c-8.890747,12.986145 -0.692139,-6.858337 -14.478973,-19.515137c-12.792786,-11.744263 -51.521027,-23.398315 -74.283569,-46.584595c-25.956696,-26.439941 -19.515167,-69.876892 -18.88562,-68.617859z"/>
   <path fill="#00b050" fill-rule="evenodd" stroke-width="1px" id="path2398" d="m196.775879,252.001099c-49.796753,39.653748 -45.22052,97.165955 -42.724304,119.891907c2.218689,20.199524 -8.840332,31.272705 -8.840332,31.272705c0,0 17.237976,-4.137085 24.325348,-8.229004c7.087372,-4.091858 41.28772,-21.656738 61.537689,-50.793884c20.250031,-29.137146 7.085754,-74.601074 14.105347,-93.918945c7.019562,-19.31781 33.525635,-28.805847 33.525635,-28.805847c0,0 -18.766602,11.561829 -22.661163,31.256165c-3.894562,19.694336 14.676361,51.860046 -7.64743,88.736694c-22.323822,36.876587 -82.46228,73.635864 -114.465576,71.175049c-15.691711,-1.206543 5.593414,-4.028625 9.661133,-22.296753c3.774445,-16.950989 -5.496948,-56.317688 3.201691,-87.623718c9.919281,-35.699158 50.757568,-51.839111 49.981964,-50.664368z"/>
   <path fill="#00b050" fill-rule="evenodd" stroke-width="1px" id="path2400" d="m172.321014,200.950623c-59.239594,-23.298401 -106.758453,9.420837 -125.191635,22.945618c-16.383926,12.021179 -31.503098,7.980408 -31.503098,7.980408c0,0 12.201797,12.859985 19.289169,16.951843c7.087357,4.091919 39.399155,24.927856 74.757675,27.896301c35.358521,2.968445 68.149323,-31.164124 88.388855,-34.743896c20.239502,-3.579834 41.709412,14.631104 41.709412,14.631104c0,0 -19.396118,-10.471436 -38.3992,-3.99707c-19.003082,6.474365 -37.573944,38.640137 -80.671936,37.745483c-43.098007,-0.894653 -105.001694,-34.596497 -118.872208,-63.542542c-6.800949,-14.192688 6.285583,2.829712 24.140121,-2.781616c16.5672,-5.206726 46.024063,-32.919312 77.485229,-41.039124c35.876007,-9.259216 70.272736,18.037781 68.867615,17.953491z"/>
  </g>
 </g>
</svg>